<?xml version="1.0" encoding="UTF-8"?>
<svg id="Layer_1" data-name="Layer 1" xmlns="http://www.w3.org/2000/svg" viewBox="0 0 500 500">
  <defs>
    <style>
      .cls-1 {
        fill: #f7f6f6;
      }

      .cls-1, .cls-2, .cls-3, .cls-4, .cls-5, .cls-6, .cls-7, .cls-8, .cls-9, .cls-10, .cls-11, .cls-12, .cls-13, .cls-14, .cls-15 {
        stroke-width: 0px;
      }

      .cls-2 {
        fill: #080605;
      }

      .cls-3 {
        fill: #f8a78b;
      }

      .cls-4 {
        fill: #363535;
      }

      .cls-5 {
        fill: #191714;
      }

      .cls-6 {
        fill: #0a0807;
      }

      .cls-7 {
        fill: #f69f1f;
      }

      .cls-8 {
        fill: #6e5327;
      }

      .cls-9 {
        fill: #201813;
      }

      .cls-10 {
        fill: #f16f66;
      }

      .cls-11 {
        fill: #f9a61c;
      }

      .cls-12 {
        fill: #ee9f25;
      }

      .cls-13 {
        fill: #fefdfc;
      }

      .cls-14 {
        fill: #4a4a4a;
      }

      .cls-15 {
        fill: #313030;
      }
    </style>
  </defs>
  <path class="cls-7" d="M406.77,110.21c4.1-.87,8.21-.05,12.31.01.97.01,1.93.03,2.9.05,4.23.1,4.53.69,3.54,4.95-2.25,9.68-4.62,19.34-6.24,29.16-.38,2.32-.98,4.6-1.59,6.88-1.72,6.41,2.08,13.05,9.8,15,11.32,2.85,22.5,6.29,33.79,9.27,3.79,1,7.71,1.49,11.39,2.97,3.34,1.34,3.85,2.72,1.56,5.38-5.93,6.88-11.98,13.65-17.9,20.54-3.77,4.39-7.3,9.06-8.91,14.66-2.09,7.27-.52,12.02,6.27,16.36,7.21,4.61,14.97,8.2,22.62,12.01,6.57,3.28,13.3,6.49,19.16,11.11v1.58c-8.56,6.61-17.96,11.83-27.61,16.66-6.21,3.11-12.34,6.4-17.41,11.35-1.96,1.91-2.1,4.32-2.53,6.7-.14.77.1,1.62-.09,2.36-2.02,8.13,2.51,13.46,7.46,18.98,5.49,6.13,11.23,12.04,16.67,18.21,2,2.27,4.34,4.23,6.02,6.8.85,1.3,1.2,1.89-.77,2.44-6.14,1.72-12.39,2.89-18.63,4.19-6.24,1.3-12.55,2.22-18.77,3.69-5.25,1.25-10.62,2.07-15.81,3.59-5.98,1.75-10.36,8.55-10.31,14.12.04,4.35,1.76,8.68,2.98,12.97,2.95,10.32,5.78,20.67,8.63,31.02.4,1.44-.26,2.14-1.75,2.11-2.74-.05-5.37-.81-8-1.41-13.11-3-26.18-6.15-39.28-9.21-.82-.19-1.44-.59-2.02-1.13.28-.34.55-.68.84-1.01,2.67-3.11,6.01-5.6,8.45-8.92.14-.17.28-.33.43-.5l.08-.07c.19-.14.38-.28.58-.42,2.48-2.32,4.66-4.9,6.82-7.51.17-.14.34-.28.51-.42,1.61-.89,2.02-2.76,3.25-3.96.2.01.3-.08.31-.28,2.04-2.37,4.16-4.66,6.09-7.11,3.54-4.49,7.2-8.9,9.92-13.98.12-.17.25-.33.37-.5l.7-.75.22-.07.04-.23c3.31-4.75,6.29-9.71,9.72-14.39,3.94-5.38,7.11-11.29,11.03-16.72,4.53-6.28,7.39-13.38,9.05-20.9,3.25-14.66,3.05-29.52,1.65-44.34-1-10.55-2.92-21-5.57-31.3-2.28-8.85-5.32-17.41-8.56-25.93-2.9-7.65-6.57-14.92-10.55-22.01-4.76-8.47-9.64-16.9-15.69-24.56-.11-.15-.23-.31-.34-.46-.66-1-1.4-1.96-1.96-3.01-1.04-1.95-3.19-3.54-2.17-6.22.39-.38.45-.85.42-1.36.03-.17.05-.35.08-.52.54-1.71.82-3.47.86-5.26.05-.17.1-.35.15-.52.06-.04.17-.06.17-.11.02-.12,0-.25-.01-.37.3-.6.65-1.19.44-1.91l.29-.79c.05-.19.1-.37.15-.56.38-.64.46-1.33.34-2.06.03-.37.06-.73.09-1.1.43-1.37.58-2.77.5-4.19.22-.72.43-1.43.65-2.15.61-.59.32-1.4.49-2.1.03-.31.06-.62.09-.93.08-.38.17-.76.25-1.14.2-1.15.54-2.28.31-3.47.4-.37.39-.82.27-1.3.73-1.14.48-2.47.71-3.71.67-.79.29-1.78.52-2.66.18-.53.35-1.06.53-1.59Z"/>
  <path class="cls-6" d="M23.16,353.06c-.58-1.61-1.15-3.23-1.73-4.84-.11-.32-.23-.64-.34-.96-.34-.7-.82-1.35-.72-2.2,0-.14-.04-.26-.13-.36-2.44-5.85-3.84-12.13-7.39-17.52-.73-1.11-1.64-2.02-2.49-3.01-4.33-5.06-7.15-10.72-5.18-17.49,1.57-5.39,5.37-9.25,10.21-12.07,9.27-5.4,19.18-9.37,29.25-12.97.32-.12.6-.37.89-.56,6.19-1.97,12.36-4.02,18.6-5.85,1.77-.52,2.25-1.25,2.31-3.06.33-10.53,1.32-20.98,3.5-31.32,1.45-6.86,2.78-13.72,4.83-20.44,1.9-6.22,3.98-12.37,6.21-18.46,4.45-12.21,10.15-23.84,16.86-34.99,5.79-9.62,11.93-18.94,19.15-27.58,6.14-7.36,12.63-14.32,19.7-20.8,5.9-5.4,11.96-10.62,18.4-15.3,10.51-7.62,21.62-14.37,33.39-19.9,12.74-5.98,26.02-10.62,39.69-13.91,12.02-2.89,24.2-5.13,36.61-5.71,4.54-.1,9.09.28,13.62-.21,2.44,0,4.89.09,7.32-.03,2.04-.09,4.14.68,6.13-.32.12-.19.23-.39.35-.58.38-1.41,1.21-2.55,2.16-3.62.15-.23.3-.46.45-.69.49-.85.98-1.7,1.48-2.55.09-.09.16-.19.2-.31l.06-.12c.13-.22.26-.45.39-.67.1-.15.21-.31.31-.46.14-.11.24-.25.28-.42,0,0,.02-.05.02-.05.15-.21.3-.43.44-.64-.02-.11-.05-.22-.11-.32,2.72-2.63,3.8-6.42,6.47-9.08.7,0,1.4.06,2.09,0,2.1-.2,2.98.54,2.17,2.68-.14,1.16-1.14,1.75-1.71,2.63-.14.16-.28.33-.42.49-1.75,3.12-3.65,6.14-5.81,9-.15.23-.31.46-.46.69-2.25,3.25-3.43,7.2-6.57,9.85-1.54-.17-.94.86-.89,1.58,0,0,0,.01,0,.01-.15.23-.3.46-.46.69.02.17-.05.3-.2.39-.11.21-.22.41-.33.62-.12.15-.23.31-.35.46-.11.08-.2.17-.27.29,0,0-.12.17-.12.17-.12.18-.25.36-.37.54-7.67,12.95-15.27,25.94-24.05,38.86-1.43-14.14-4.99-27.35-6.02-40.97-.63,1.81-.91,3.59-1.32,5.35-3.3,14.19-7.63,28.09-11.92,42-.9,2.92-1.52,5.93-3.1,8.61-.66,1.12-1.61,1.52-2.86,1.49-.92-.02-1.18-.55-1.29-1.33-.44-3.1-.98-6.18-1.33-9.29-.55-4.88-.86-9.78-1.46-14.65-1.16-9.47-3.32-18.8-3.83-28.36-.03-.51.21-1.26-.71-1.4-.81,4.3-1.66,8.57-2.42,12.86-1.98,11.13-4.27,22.19-6.66,33.24-1.88,8.66-3.49,17.37-5.19,26.07-1.13,5.75-1.94,11.58-3.97,17.12-3.24.18-6.34.81-9.45,1.92-3.21,1.15-6.32,2.52-9.5,3.75-5.8,2.23-11.55,4.55-17.18,7.19-5.94,2.79-11.68,5.93-17.26,9.37-2.96,1.82-6.07,3.43-8.94,5.4-6.87,4.71-13.24,10-18.91,16.16-6.53,7.08-11.97,14.9-15.69,23.75-4.43,10.53-6.19,21.68-6.35,33.09q-.07,5.31-5.34,6.14c-.69.11-1.39.2-2.06.37-10.75,2.8-21.69,4.8-32.33,8.03-4.64,1.41-9.33,2.67-14.55,4.16,3.92,1.23,4.27,4.72,6.02,7.13,1.98,2.74,2.85,5.97,3.44,9.27,1.13,6.41-.47,12.62-1.96,18.7-2.4,9.81-7.02,18.57-14.08,25.98-5.27,5.53-10.95,10.48-17.87,13.8-.99.47-1.03.95-.99,1.74-.38.78-.91,1.62.64,1.65.43.83.87,1.66,1.3,2.49-.56.22-1.36.46-1.17,1.14.3,1.09,1.39,1.07,2.33,1.11.18.38.37.76.55,1.13-.15.76-.29,1.51-.45,2.27-.13.59.87,1.38-.22,1.77-.91.32-1.77-.12-2.31-.81-.57-.74-1.13-1.29-2.12-1.19-.05-.19-.1-.39-.15-.58-.55-1.02,1.71-3.44-1.54-3.13-.57-.89-1.44-1.6-1.61-2.72-.12-.31-.24-.62-.37-.93-.23-.74-.46-1.48-.69-2.23,0-1.84,1.3-4.24-2-4.66-.04-.19-.08-.37-.13-.56-.12-.34-.25-.67-.37-1.01Z"/>
  <path class="cls-7" d="M297.87,52.78c.06.1.09.21.11.32-.15.21-.3.43-.44.64,0,0-.02.05-.02.05-.09.14-.18.28-.28.42-.1.15-.21.31-.31.46-.13.22-.26.45-.39.67,0,0-.06.12-.06.12,0,0-.2.1-.2.1,0,0,0,.21,0,.21-.49.85-.98,1.7-1.48,2.55-.15.23-.3.46-.45.69-.95,1.07-1.78,2.21-2.16,3.62-.12.19-.23.39-.35.58-1.99,1-4.09.22-6.13.32-2.44.11-4.88.03-7.32.03-4.55-.31-9.09-.61-13.62.21-12.41.58-24.59,2.81-36.61,5.71-13.67,3.29-26.95,7.92-39.69,13.91-11.77,5.53-22.88,12.27-33.39,19.9-6.44,4.68-12.51,9.89-18.4,15.3-7.07,6.48-13.55,13.44-19.7,20.8-7.21,8.64-13.36,17.96-19.15,27.58-6.71,11.15-12.4,22.78-16.86,34.99-2.22,6.09-4.31,12.24-6.21,18.46-2.05,6.73-3.38,13.59-4.83,20.44-2.18,10.34-3.17,20.79-3.5,31.32-.06,1.81-.54,2.54-2.31,3.06-6.24,1.83-12.41,3.88-18.6,5.85-1.7-2.63-4.86-2.89-7.28-4.34-6.83-4.08-13.66-8.12-20.06-12.85-3.19-2.35-3.23-5,.18-7.01,6.91-4.07,14-7.85,20.98-11.8,5.77-3.26,12.02-5.82,16.99-10.28,4.18-3.75,5.35-8.8,4.54-14.37-.89-6.12-4.07-11.02-7.9-15.62-3.97-4.77-7.76-9.71-11.95-14.28-2.29-2.5-4.71-4.89-6.76-7.6-.05-.07-.12-.13-.18-.2-2.78-3.71-2.08-5.61,2.4-6.91,6.14-1.78,12.46-2.75,18.65-4.24,6.63-1.6,13.22-3.37,19.83-5.03,1.01-.25,2.08-.3,3.12-.43,5.85-.75,9.78-4.57,13.13-8.85,2.3-2.93,2.49-6.72,1.72-10.32-1.83-8.53-4.59-16.83-6.64-25.3-1.23-5.09-2.82-10.09-3.91-15.21-.41-1.92.34-2.2,1.78-2.17,8.92.22,17.85.54,26.77.69,6.59.11,13.19.06,19.78-.03,4.82-.06,9.13-1.96,12.8-4.84,2.31-1.81,3.95-4.78,4.37-7.62.99-6.66,2.41-13.24,3.47-19.88,1.15-7.16,1.99-14.38,3.75-21.44.55-2.2,1.08-4.42,1.4-6.66.23-1.62.78-1.53,2.05-.97,5.39,2.38,9.96,6.16,15.15,8.84,8.89,4.59,17.15,10.55,26.99,13.15,5.22,1.38,10.29,1.03,14.43-3.02,4.32-4.23,7.87-9.09,11.55-13.87,3.72-4.84,7.65-9.55,11.51-14.3,4.19-5.16,8.34-10.37,12.25-15.74,1.15-1.58,1.54-1.03,2.43-.09,5.08,5.31,9.77,10.96,14.6,16.49,4.31,4.92,8.61,9.87,13.05,14.68,2.62,2.84,4.81,3.72,8.5,3.3,2.86-.32,5.86-1.46,8.81-.19Z"/>
  <path class="cls-6" d="M400.98,140.34c-.05.17-.1.35-.15.52-.47.45-.74,1.12-1.68.7-1.33-.6-1.71.19-2.01,1.43-.63,2.58.94,2.94,2.82,3.13-.03.17-.05.35-.08.52-.51.34-.49.84-.42,1.36-1.02,2.68,1.13,4.27,2.17,6.22.56,1.05,1.3,2.01,1.96,3.01.11.15.23.31.34.46,6.05,7.66,10.93,16.09,15.69,24.56,3.99,7.09,7.65,14.36,10.55,22.01,3.23,8.52,6.28,17.09,8.56,25.93,2.65,10.3,4.57,20.74,5.57,31.3,1.4,14.82,1.6,29.67-1.65,44.34-1.67,7.52-4.52,14.62-9.05,20.9-3.91,5.43-7.09,11.34-11.03,16.72-3.43,4.68-6.41,9.64-9.72,14.39-.12.07-.21.16-.26.3-.23.25-.47.5-.7.75-.12.17-.25.33-.37.5-2.71,5.08-6.37,9.49-9.92,13.98-1.93,2.45-4.06,4.75-6.09,7.11-.13.07-.23.16-.31.28-1.23,1.2-1.64,3.07-3.25,3.96-.17.14-.34.28-.51.42-2.16,2.61-4.34,5.2-6.82,7.51-.19.14-.38.28-.58.42,0,0-.08.07-.08.07-.14.17-.28.33-.43.5-2.45,3.33-5.78,5.81-8.45,8.92-.28.33-.56.67-.84,1.01-3.27,2.86-6.54,5.72-9.81,8.58-.15.14-.3.28-.45.42-.19.22-.39.44-.58.66-.43,0-.79.12-.97.56-1.84,1.58-3.66,3.18-5.54,4.72-3.54,2.9-6.71,6.26-10.79,8.47-.18.12-.36.23-.55.35-.29.22-.59.45-.88.67-.26-.92-.99-1.05-1.79-1.04,0-1.38-.02-2.75-1.63-3.36,1.11-.81,2.22-1.62,3.33-2.42.14-.03.26-.1.35-.21.33-.45.66-.9,1-1.35.39-.02.77-.04,1.16-.06,2.51.86,3.37-.26,3.17-2.65,3.9-3.51,7.94-6.86,12.12-10.03.71.02,1.07-.34,1.08-1.05.51-.89,1.22-1.59,2.11-2.11,1.52.12,2.22-.58,2.13-2.09.35-.71.87-1.24,1.58-1.6,2.44-.37,3.83-1.79,4.23-4.2,2.99-2.82,5.97-5.65,8.96-8.47,1.27-.15,1.99-.84,2.1-2.13,2.08-3.67,5.27-6.44,7.92-9.65,3.09-3.75,6.17-7.49,9-11.44,1.06-.05,1.06-.82,1.05-1.58,2.32-3.33,4.91-6.47,6.88-10.03,2.15-.34,2.65-1.83,2.6-3.71.09-.89.75-1.55,1-2.34.78-2.53,3.28-4.26,3.27-7.13,1.72-2.67,2.22-5.8,3.11-8.75,1.77-5.83,3.24-11.76,4.64-17.69.35-1.47.74-3.28-1.45-4.22-9.32-3.98-18.74-7.71-28.43-10.69-2.47-.76-4.85-2.08-7.57-1.89-.72-.3-1.43-.67-2.18-.9-3.65-1.12-7.17-2.79-11.11-2.67-.6-.4-1.83-.75-.34-1.51,2.02-1.03,3.95-2.33,6.27-2.65,1.3.1,2.67-.02,3.9.33,6.1,1.72,12.35,2.42,18.62,2.9,4.62.35,9.24.15,13.87-.48-2.22-1.2-4.47-2.15-6.7-3.06-7.26-2.95-14.37-7.3-22.69-3.55,0-.19,0-.39,0-.58q5.71-3.18,4.89-8.42c5.76-5.25,12.11-9.85,17.98-15.92-12.41.67-22.51,5.56-32.04,12.01-.44.02-.88.02-1.32.05-1.18.07-2.91.86-3.4-.19-.54-1.17.59-2.6,1.45-3.72.05-.07.11-.14.18-.19,3.23-2.87,5.65-6.44,8.4-9.71,1.79-2.13,1.65-2.55-1.12-2.96-4.34-.65-8.69-1.3-13,.26-.63.23-1.46.48-1.94-.19-.41-.57.14-1.18.43-1.69,3.29-5.68,6.46-11.44,9.96-16.99,1.99-3.16,3.06-6.67,4.6-9.99.24-.52.6-1.24-.02-1.69-.58-.42-1.16.08-1.67.4-3.32,2.12-6.63,4.25-9.94,6.39-1.01.65-1.92,1.55-3.51,1.3,1.09-1.31,2.07-2.51,3.07-3.69,6.44-7.68,9.28-17.02,11.95-26.38,3.15-11.05,5.98-22.19,8.95-33.29.07-.23.15-.46.22-.69.03-.29.06-.57.09-.86.76-.51.47-1.31.55-2.01.22-.75.43-1.5.65-2.24.39-.33.37-.77.3-1.22.07-.47.14-.95.22-1.42.08-.29.16-.57.24-.86-.2-.66.04-1.24.33-1.8.45-.44.34-1,.33-1.53.2-.71.4-1.42.6-2.13.71-.62.42-1.43.42-2.18.06-.33.12-.66.18-1,.51-.47.39-1.07.35-1.65-.12-.15-.11-.29,0-.43.69-.12,1.7.36,1.97-.6.3-1.09-.66-1.58-1.46-2.05.07-.18.14-.37.2-.55.4-.34.37-.79.29-1.24-.26-.69-.08-1.32.25-1.93.58-.66.32-1.44.31-2.18.07-.68.14-1.36.21-2.04.49-.48.38-1.07.33-1.65.02-.5.04-1,.07-1.49.75-.57.45-1.38.49-2.12.15-.74.3-1.48.45-2.23.06-.1.1-.21.12-.33l.03-.06c.73-.65.44-1.48.42-2.27-.23-1.78.04-3.49.68-5.15.69-.64.39-1.44.39-2.2,0-1.1-.02-2.21.52-3.22.04-.13.05-.27.03-.41.05-.35.1-.69.16-1.04.62-.65.35-1.44.35-2.19-.1-.69-.16-1.37.17-2.02.06-.04.17-.08.16-.12,0-.12-.05-.24-.08-.36-.12-.62-.13-1.23.25-1.77.05-.15.06-.29.03-.45.01-.33.02-.65.03-.98.89-.74.43-1.75.52-2.65.11-.38.22-.76.32-1.14.07-.68.13-1.36.2-2.03.05-.18.1-.36.15-.54.75-1.21.29-2.53.33-3.81-.21-.87,0-1.7.24-2.53.38-.33.39-.66,0-.99-.11-1.31-.2-2.61.21-3.89.03-1.02.06-2.03.1-3.05.06-1.76-.26-3.53.18-5.27.62-5.25.62-10.51,0-15.76-.06-.34-.13-.68-.19-1.02,0-.76,0-1.52,0-2.28-.1-1.38-.2-2.77-.3-4.15.05-.05.14-.13.13-.16-.05-.12-.13-.22-.19-.33-.32-.6-.32-1.23-.2-1.87-.02-.98.46-2.04-.44-2.89-.14-.08-.17-.19-.09-.33-.08-.23-.16-.46-.24-.7-.08-.51-.17-1.03-.25-1.54.03-.6.15-1.23-.45-1.65-.05-.26-.09-.51-.14-.77-.1-.27-.2-.54-.3-.81-.07-.29-.14-.58-.22-.86-.09-.24-.17-.47-.26-.71-.09-.28-.18-.56-.27-.84-.08-.24-.16-.49-.24-.73-.07-.2-.13-.39-.2-.59-.14-.34-.27-.67-.41-1.01-.22-.35-.44-.71-.66-1.06-.12-.17-.23-.34-.35-.52-.59-.7-1.18-1.41-1.77-2.11-.23-.16-.47-.33-.7-.49-.18.02-.3-.06-.37-.22-.32-.13-.64-.27-.95-.4-1.09-.22-2.17-.44-3.26-.67-.15-.03-.31-.07-.46-.1-.55.08-1.09.16-1.64.23-2.11-2.93-2.65-2.9-4.32.25-.12.23-.26.45-.39.67-1.05.41-2.1.82-3.15,1.23-.85-1.56-3.36-1.84-3.19-4.18.6-.63,1.41-.82,2.19-1.09.31-.12.63-.25.94-.37.57-.23,1.13-.46,1.7-.68.31-.12.62-.24.94-.36.2-.06.4-.12.6-.18.52,0,1.07.11,1.5-.33,2.66-.35,5.32-.31,7.99-.03.43.47,1,.35,1.54.34,5.24,1.15,7.63,5.12,9.48,9.61.11.3.22.61.33.91.08.37.15.73.23,1.1.12.34.24.68.36,1.02.47.84.83,1.7.69,2.69,0,.55-.1,1.13.41,1.54.04.53.08,1.06.13,1.59.04.72-.23,1.49.4,2.1.04.2.07.4.11.6.07.48.13.96.2,1.43.11.24.21.47.32.71.12,1.02-.32,2.12.4,3.06.04,1.97.09,3.93.13,5.9,0,6.83.01,13.66.02,20.49-.06,2.13-.12,4.26-.18,6.39-.73,1.32-.21,2.74-.36,4.11-.06.21-.12.43-.17.64-.61.78-.26,1.69-.35,2.53-.05,1.09-.09,2.17-.14,3.26-.66.77-.29,1.7-.38,2.55-.03.55-.06,1.11-.1,1.66-.44.29-.51.62-.11,1,.07.54.15,1.08.22,1.62-.18.53-.35,1.06-.53,1.59-.9.75-.43,1.76-.52,2.66-.23,1.24.02,2.57-.71,3.71-.39.37-.34.83-.27,1.3.23,1.19-.1,2.32-.31,3.47-.08.38-.17.76-.25,1.14-.03.31-.06.62-.09.93-.74.56-.44,1.37-.49,2.1-.22.72-.43,1.43-.65,2.15-.56.38-.31,1.41-1.2,1.51-.91.09-1.44.49-1.25,1.48.22,1.08,1.04,1.21,1.95,1.21-.03.37-.06.73-.09,1.1-.55.61-.32,1.36-.34,2.06-.05.19-.1.37-.15.56-.1.26-.19.53-.29.79.21.72-.14,1.31-.44,1.91-.11.14-.16.3-.16.48ZM346.07,424.04c.47-.06.48-.42.48-.76,0-.34-.02-.75-.48-.75-.47,0-.48.41-.48.75,0,.34.02.7.48.77ZM403.14,46.77c.17-.31.37-.5.38-.69.01-.36-.21-.65-.6-.5-.14.06-.26.41-.24.62.02.17.25.33.46.58Z"/>
  <path class="cls-7" d="M284.41,449.1c-9.03,13.21-20.72,23.79-33.2,33.6-1.79,1.4-3.45,2.97-5.58,3.91-1.3.58-1.93.52-2.54-1.01-3.64-9.13-7.52-18.16-12.21-26.82-2.52-4.64-5.99-8.6-9.41-12.52-6.03-6.92-12.16-13.77-19.22-19.73-2.99-2.53-6.42-3.36-10.07-3.86-.72-.1-1.31.22-1.95.61-7.45,4.61-14.3,10.05-21.35,15.22-4.78,3.51-9.73,6.82-14.73,10.01-3.05,1.94-3.7,1.59-4.18-2.01-1.22-9.19-2.86-18.29-4.95-27.32-.69-2.98-1.54-5.91-2.32-8.87,8.23-1.16,16.47-2.35,24.71-3.48,2.83-.39,5.66-1.27,8.53.05,11.39,5.22,23.07,9.71,35,13.53,1.11.35,2.12.88,2.83,1.83,4.93,6.67,9.67,13.46,15.13,19.75,3,3.46,6.28,6.15,10.86,6.73,9.33,1.18,18.73.9,28.1.94,5.52.02,11.03-.35,16.55-.55Z"/>
  <path class="cls-5" d="M284.41,449.1c-5.52.2-11.04.58-16.55.55-9.37-.04-18.77.24-28.1-.94-4.58-.58-7.85-3.27-10.86-6.73-5.46-6.28-10.19-13.08-15.13-19.75-.71-.95-1.72-1.48-2.83-1.83-11.94-3.82-23.61-8.31-35-13.53-2.87-1.31-5.69-.43-8.53-.05-8.24,1.12-16.47,2.31-24.71,3.48-9.13.42-18.15,2.06-27.25,2.63-14.64.92-29.39,2.45-43.68-2.52-7.02-2.44-13.23-6.24-18.86-11.21-5.39-4.76-10.38-9.83-14.37-15.77-3.13-4.66-6.37-9.31-8.52-14.56.99-.1,1.55.45,2.12,1.19.54.69,1.4,1.13,2.31.81,1.09-.38.09-1.18.22-1.77.16-.75.3-1.51.45-2.27.48.82.96,1.65,1.45,2.47,2.66,4.4,4.9,9.13,8.07,13.13,4.59,5.79,9.78,11.06,15.76,15.58,7.59,5.75,16.13,8.47,25.42,9.54,11.16,1.28,22.26.12,33.35-.75,11.83-.93,23.66-2.09,35.41-3.85,8.89-1.33,17.78-2.57,26.58-4.41.59.14,1.19.45,1.75.39,4.56-.53,9.11-1.25,13.68-1.67,4.04-.37,8.06-1.32,12.16-.76,2.64,6.87,6.05,13.4,9.27,20,3.44,7.03,8.43,13.02,12.98,19.33,3.65,5.06,8.16,7.83,14.08,8.22,12.52.82,25.06,1.17,37.56-.41,14.69-1.87,29.24-4.36,42.85-10.63-.04,1.41,1.01,1.82,2.03,1.78,1.48-.06,2.4.64,3.25,1.65-.72.8-1.64,1.3-2.62,1.7-2.83,1.16-5.66,2.32-8.49,3.47-1.56-.18-2.88.66-4.28,1.11-10.1,3.23-20.48,5.06-30.97,6.35Z"/>
  <path class="cls-9" d="M377.75,36.37c-.17,2.34,2.34,2.62,3.19,4.18-2.01,1.24-4.1,2.37-6.03,3.73-5.99,4.21-11.19,9.28-16.11,14.67-6.56,7.18-12.32,15.01-18.31,22.65-4.32,5.52-8.74,10.97-12.17,17.13-.11.2-.44.28-.66.42-1.74-1.38-3.46-.38-5.24.18-.55-24.4,1.51-48.6,2.02-72.88-4.16,4.71-8.03,9.45-11.6,14.43-1.34,1.87-2.28,4.1-4.25,5.49.81-2.13-.06-2.88-2.17-2.68-.69.07-1.39,0-2.09,0,7.31-11.05,15.08-21.72,25.24-30.64,1.07,1.81.79,3.6.73,5.3-.44,11.74-.98,23.48-1.41,35.22-.22,6.22-.95,12.41-.75,18.64,0,5.03,0,10.07,0,15.1.22.06.44.13.67.19,1.33-3.45,4.03-5.81,6.27-8.55.76-.92,2.06-1.41,2.29-2.76,1.49-.68,2.21-2.06,3.12-3.3,5.46-7.42,11.35-14.47,17.79-21.06,5.12-5.23,10.22-10.48,16.71-14.08.9-.5,1.83-.93,2.75-1.4Z"/>
  <path class="cls-7" d="M319.66,441.64c2.83-1.16,5.66-2.31,8.49-3.47.98-.4,1.9-.9,2.62-1.7,2.3-1.29,4.77-2.26,6.89-3.87.24-.1.47-.2.71-.3.18.04.29-.03.33-.21.11-.12.23-.24.34-.36.59-.4,1.18-.81,1.77-1.21.39.04.72-.04.9-.43.4-.34.79-.69,1.19-1.03.77-.06,1.39-.36,1.79-1.06.29-.22.59-.45.88-.67.18-.12.36-.23.55-.35,4.08-2.2,7.25-5.57,10.79-8.47,1.88-1.54,3.69-3.14,5.54-4.72.3-.05.61-.09.91-.14-3.36,11.42-4.73,23.2-6.43,34.94-.8,5.55-1.38,11.11-2.07,16.67-.14,1.16-.57,2.38-1.6,2.9-1.22.62-1.79-.81-2.48-1.42-8.76-7.82-17.67-15.45-26.87-22.74-1.33-1.06-3.24-.86-4.25-2.35Z"/>
  <path class="cls-12" d="M337.38,76.2c-.23,1.35-1.53,1.84-2.29,2.76-2.24,2.73-4.95,5.1-6.27,8.55-.22-.06-.44-.13-.67-.19,0-5.03,0-10.07,0-15.1,3.79-.34,6.44,1.99,9.23,3.98Z"/>
  <path class="cls-9" d="M408.35,86.44c0-6.83-.01-13.66-.02-20.49.77,6.83.62,13.66.02,20.49Z"/>
  <path class="cls-5" d="M23.66,354.63c3.3.42,2.01,2.82,2,4.66-1.17-1.34-1.28-3.13-2-4.66Z"/>
  <path class="cls-5" d="M28.33,365.17c3.25-.31.99,2.11,1.54,3.13-.79-.91-1.27-1.97-1.54-3.13Z"/>
  <path class="cls-9" d="M407.81,96.95c.15-1.37-.37-2.8.36-4.11.03,1.38.24,2.78-.36,4.11Z"/>
  <path class="cls-9" d="M408.2,60.05c-.72-.94-.28-2.04-.4-3.06.53.97.42,2.02.4,3.06Z"/>
  <path class="cls-9" d="M407.28,100.12c.09-.85-.26-1.76.35-2.53.07.87.34,1.77-.35,2.53Z"/>
  <path class="cls-9" d="M406.76,105.94c.09-.86-.28-1.78.38-2.55,0,.87.32,1.79-.38,2.55Z"/>
  <path class="cls-9" d="M407.17,54.25c-.63-.61-.36-1.38-.4-2.1.77.58.34,1.39.4,2.1Z"/>
  <path class="cls-9" d="M385.62,33.36c-.43.43-.98.33-1.5.33.4-.56.96-.42,1.5-.33Z"/>
  <path class="cls-9" d="M395.15,33.68c-.54,0-1.11.12-1.54-.34.55-.07,1.14-.27,1.54.34Z"/>
  <path class="cls-9" d="M406.65,50.56c-.51-.41-.42-.99-.41-1.54.53.41.46.98.41,1.54Z"/>
  <path class="cls-9" d="M407.49,56.28c-.07-.48-.13-.96-.2-1.43.41.43.25.94.2,1.43Z"/>
  <path class="cls-9" d="M406.55,108.6c-.4-.38-.33-.71.11-1-.04.33-.07.67-.11,1Z"/>
  <path class="cls-5" d="M21.09,347.27c.11.32.23.64.34.96-.11-.32-.23-.64-.34-.96Z"/>
  <path class="cls-5" d="M23.16,353.06c.12.34.25.67.37,1.01-.37-.24-.45-.6-.37-1.01Z"/>
  <path class="cls-9" d="M405.55,46.32c-.12-.34-.24-.68-.36-1.02.43.23.44.61.36,1.02Z"/>
  <path class="cls-5" d="M26.36,361.52c.12.31.24.62.37.93-.31-.24-.46-.54-.37-.93Z"/>
  <path class="cls-9" d="M404.96,44.2c-.11-.3-.22-.61-.33-.91.41.19.32.57.33.91Z"/>
  <path class="cls-9" d="M380.88,34.91c-.31.12-.63.25-.94.37.2-.4.55-.43.94-.37Z"/>
  <path class="cls-5" d="M363.35,413.65c-.3.05-.61.09-.91.14.18-.43.54-.56.97-.56.04.15.02.28-.05.42Z"/>
  <path class="cls-9" d="M383.52,33.87c-.31.12-.62.24-.94.36.31-.12.62-.24.94-.36Z"/>
  <path class="cls-5" d="M20.24,344.7c.09.11.13.23.13.36,0,0-.19-.15-.19-.15l.05-.21Z"/>
  <path class="cls-5" d="M363.99,412.57c.15-.14.3-.28.45-.42-.15.14-.3.28-.45.42Z"/>
  <path class="cls-9" d="M399.97,146.13c-1.88-.19-3.45-.55-2.82-3.13.3-1.24.68-2.02,2.01-1.43.94.42,1.21-.25,1.68-.7-.04,1.79-.32,3.55-.86,5.26Z"/>
  <path class="cls-9" d="M402.46,133.45c-.9,0-1.73-.12-1.95-1.21-.2-.99.33-1.39,1.25-1.48.89-.09.64-1.13,1.2-1.51.09,1.43-.07,2.83-.5,4.19Z"/>
  <path class="cls-9" d="M405.73,114.46c.09-.9-.38-1.92.52-2.66-.22.88.15,1.87-.52,2.66Z"/>
  <path class="cls-9" d="M402.02,136.61c.03-.7-.21-1.45.34-2.06.12.73.03,1.42-.34,2.06Z"/>
  <path class="cls-9" d="M403.61,127.11c.05-.73-.26-1.53.49-2.1-.16.7.12,1.5-.49,2.1Z"/>
  <path class="cls-9" d="M404.75,119.48c-.07-.47-.12-.93.27-1.3.12.48.13.93-.27,1.3Z"/>
  <path class="cls-9" d="M404.19,124.08c.08-.38.17-.76.25-1.14-.08.38-.17.76-.25,1.14Z"/>
  <path class="cls-9" d="M399.47,148c-.07-.52-.09-1.02.42-1.36.03.51-.03.98-.42,1.36Z"/>
  <path class="cls-9" d="M400.98,140.34c0-.18.05-.34.16-.48,0,.12.03.25.01.37,0,.04-.11.07-.17.11Z"/>
  <path class="cls-5" d="M412.6,358.13c.05-.13.14-.23.26-.3,0,0-.04.23-.04.23l-.22.07Z"/>
  <path class="cls-5" d="M411.52,359.38c.13-.17.25-.34.37-.5-.13.17-.25.34-.37.5Z"/>
  <path class="cls-9" d="M401.58,137.96c.1-.26.19-.53.29-.79-.1.26-.19.53-.29.79Z"/>
  <path class="cls-5" d="M395.2,380.76c.08-.12.18-.22.31-.28,0,.2-.11.3-.31.28Z"/>
  <path class="cls-5" d="M384.05,393.07c.19-.14.38-.28.58-.42-.19.14-.38.28-.58.42Z"/>
  <path class="cls-5" d="M383.54,393.64c.14-.17.28-.33.43-.5-.14.17-.28.33-.43.5Z"/>
  <path class="cls-9" d="M403.94,157.7c-.11-.15-.23-.31-.34-.46.11.15.23.31.34.46Z"/>
  <path class="cls-5" d="M391.44,385.13c.17-.14.34-.28.51-.42-.17.14-.34.28-.51.42Z"/>
  <path class="cls-13" d="M181.15,398.56c-8.8,1.84-17.7,3.08-26.58,4.41-11.75,1.76-23.58,2.92-35.41,3.85-11.08.87-22.19,2.03-33.35.75-9.29-1.06-17.82-3.78-25.42-9.54-5.97-4.53-11.17-9.79-15.76-15.58-3.17-4-5.42-8.73-8.07-13.13-.49-.82-.97-1.64-1.45-2.47-.18-.38-.37-.76-.55-1.13-.07-.91-.65-1.56-1.16-2.25-.43-.83-.87-1.66-1.3-2.49.06-.66-.12-1.22-.64-1.65-.03-.79,0-1.27.99-1.74,6.92-3.32,12.61-8.27,17.87-13.8,7.06-7.41,11.68-16.17,14.08-25.98,1.49-6.08,3.09-12.29,1.96-18.7-.58-3.29-1.46-6.52-3.44-9.27-1.74-2.42-2.09-5.91-6.02-7.13,5.23-1.49,9.91-2.75,14.55-4.16,10.64-3.23,21.59-5.23,32.33-8.03.67-.18,1.37-.26,2.06-.37q5.27-.84,5.34-6.14c.16-11.4,1.92-22.56,6.35-33.09,3.72-8.84,9.16-16.66,15.69-23.75,5.67-6.15,12.04-11.45,18.91-16.16,2.87-1.96,5.98-3.57,8.94-5.4,5.59-3.44,11.32-6.58,17.26-9.37,5.63-2.64,11.38-4.97,17.18-7.19,3.18-1.22,6.29-2.59,9.5-3.75,3.1-1.11,6.2-1.74,9.45-1.92-.47,3.24.56,5.78,3.43,7.53.57.35.95.99,1.42,1.5-3.54,9.36-7.96,18.21-15.88,24.68-8.68,7.1-17.5,14.04-26.4,20.87-10.23,7.85-20.2,15.96-29.02,25.43-5.77,6.19-10.93,12.87-15.02,20.22-7.78,13.96-10.91,28.89-8.25,44.89,1.66,9.99,5.57,18.89,11.45,27.11,5.59,7.82,12.62,14.27,19.2,21.14,7.64,7.98,15.6,15.72,21.2,25.33,2.89,4.96,6.09,10.15,4.53,16.47Z"/>
  <path class="cls-10" d="M219.35,172.42c-.47-.51-.85-1.15-1.42-1.5-2.87-1.75-3.89-4.29-3.43-7.53,2.03-5.54,2.84-11.37,3.97-17.12,1.71-8.69,3.32-17.41,5.19-26.07,2.39-11.05,4.68-22.11,6.66-33.24.76-4.29,1.61-8.56,2.42-12.86.92.14.68.89.71,1.4.51,9.56,2.67,18.89,3.83,28.36.6,4.87.91,9.77,1.46,14.65.35,3.11.89,6.19,1.33,9.29.11.78.37,1.31,1.29,1.33,1.25.03,2.2-.36,2.86-1.49,1.58-2.68,2.2-5.7,3.1-8.61,4.29-13.91,8.62-27.81,11.92-42,.41-1.76.69-3.54,1.32-5.35,1.02,13.62,4.59,26.83,6.02,40.97,8.78-12.92,16.38-25.92,24.05-38.86.12-.18.25-.36.37-.54,0,0,.12-.17.12-.17.19,0,.28-.1.27-.29.12-.15.23-.31.35-.46.11-.21.22-.41.33-.62.15-.09.22-.22.2-.39.15-.23.3-.46.46-.69,0,0,0-.01,0-.01.64-.33.75-.96.89-1.58,3.14-2.65,4.32-6.61,6.57-9.85.15-.23.31-.46.46-.69,2.16-2.85,4.06-5.88,5.81-9,.14-.16.28-.33.42-.49.57-.88,1.57-1.47,1.71-2.63,1.97-1.4,2.91-3.62,4.25-5.49,3.57-4.99,7.44-9.72,11.6-14.43-.51,24.28-2.56,48.48-2.02,72.88,1.77-.55,3.49-1.56,5.24-.18-.43.96-.74,1.99-1.3,2.86-3.78,5.79-7.78,11.43-11.3,17.39-3.83,6.48-7.79,12.88-11.78,19.26-5.41,8.66-10.48,17.53-18.22,24.55-5.27,4.77-11,8.64-17.46,11.4-9.5,4.07-19.53,4.45-29.64,3.56-3.64-.32-7.19-1.15-10.69-2.38-2.73-.96-4.97-3-7.92-3.37Z"/>
  <path class="cls-9" d="M264.77,63.76c4.53-.82,9.08-.52,13.62-.21-4.54.48-9.08.1-13.62.21Z"/>
  <path class="cls-5" d="M33.41,363.47c.51.69,1.09,1.34,1.16,2.25-.94-.04-2.02-.02-2.33-1.11-.19-.68.61-.91,1.17-1.14Z"/>
  <path class="cls-9" d="M293.63,69.03c-.14.61-.25,1.24-.89,1.58-.05-.72-.65-1.75.89-1.58Z"/>
  <path class="cls-5" d="M31.47,359.33c.52.43.7,1,.64,1.65-1.55-.04-1.02-.87-.64-1.65Z"/>
  <path class="cls-9" d="M292.73,70.62c-.15.23-.3.46-.46.69.15-.23.3-.46.46-.69Z"/>
  <path class="cls-9" d="M291.85,63.21c.12-.19.23-.39.35-.58-.12.19-.23.39-.35.58Z"/>
  <path class="cls-9" d="M300.66,58.48c-.15.23-.31.46-.46.69.15-.23.31-.46.46-.69Z"/>
  <path class="cls-9" d="M294.35,59.01c.15-.23.3-.46.45-.69-.15.23-.3.46-.45.69Z"/>
  <path class="cls-9" d="M296.28,55.77v-.21s.2-.1.2-.1c-.05.12-.11.22-.2.31Z"/>
  <path class="cls-9" d="M296.54,55.34c.13-.22.26-.45.39-.67-.13.22-.26.45-.39.67Z"/>
  <path class="cls-9" d="M297.24,54.21c.09-.14.18-.28.28-.42-.04.18-.13.32-.28.42Z"/>
  <path class="cls-9" d="M297.54,53.74c.15-.21.3-.43.44-.64-.15.21-.3.43-.44.64Z"/>
  <path class="cls-9" d="M306.89,49c-.14.16-.28.33-.42.49.14-.16.28-.33.42-.49Z"/>
  <path class="cls-9" d="M291.01,73.24c-.12.18-.25.36-.37.54.12-.18.25-.36.37-.54Z"/>
  <path class="cls-9" d="M291.39,72.78c.02.19-.07.29-.27.29.07-.12.15-.21.27-.29Z"/>
  <path class="cls-9" d="M292.08,71.7c-.11.21-.22.41-.33.62.11-.21.22-.41.33-.62Z"/>
  <path class="cls-11" d="M219.35,172.42c2.95.37,5.18,2.41,7.92,3.37,3.51,1.23,7.06,2.06,10.69,2.38,10.11.9,20.14.51,29.64-3.56,6.46-2.76,12.2-6.63,17.46-11.4,7.74-7.02,12.81-15.89,18.22-24.55,3.99-6.38,7.95-12.78,11.78-19.26,3.52-5.96,7.52-11.61,11.3-17.39.57-.87.88-1.9,1.3-2.86.23-.14.55-.22.66-.42,3.42-6.16,7.84-11.62,12.17-17.13,5.99-7.64,11.75-15.47,18.31-22.65,4.92-5.39,10.13-10.47,16.11-14.67,1.93-1.35,4.01-2.49,6.03-3.73,1.05-.41,2.1-.82,3.15-1.23,1.57-.31,3.14-.61,4.72-.92.55-.08,1.09-.16,1.64-.23,0,0,.22.12.22.12,0,0,.25-.02.25-.02,1.09.22,2.17.44,3.26.67.32.13.64.27.95.4.07.16.2.23.37.22.23.16.47.33.7.49.59.7,1.18,1.41,1.77,2.11.12.17.23.34.35.52.22.35.44.71.66,1.06-.07.42,0,.78.41,1.01.07.2.13.39.2.59.08.24.16.49.24.73.09.28.18.56.27.84.09.24.17.47.26.71.07.29.14.58.22.86.1.27.2.54.3.81.05.26.09.51.14.77-.02.6.04,1.17.45,1.65.08.51.17,1.03.25,1.54.08.23.16.46.24.7-.07.14-.04.25.09.33.14.96-.15,1.99.44,2.89-.11.64-.12,1.28.2,1.87-.06.17-.04.34.07.49.1,1.38.2,2.77.3,4.15-.29.76-.3,1.52,0,2.28.06.34.13.68.19,1.02,0,5.25,0,10.51,0,15.76-.44,1.74-.12,3.51-.18,5.27-.27,1.01-.33,2.03-.1,3.05-.42,1.28-.33,2.58-.21,3.89,0,.33,0,.66,0,.99-.25.83-.45,1.66-.24,2.53-.5,1.24-.42,2.52-.33,3.81-.05.18-.1.36-.15.54-.57.63-.42,1.33-.2,2.03-.11.38-.22.76-.32,1.14-.61.8-.26,1.78-.52,2.65-.01.33-.02.65-.03.98-.04.04-.12.09-.11.13,0,.11.05.21.08.32-.39.55-.38,1.15-.25,1.77-.11.15-.13.31-.08.48-.33.65-.27,1.33-.17,2.02-.54.66-.4,1.43-.35,2.19-.05.35-.1.69-.16,1.04-.16.13-.17.26-.03.41-.54,1.02-.53,2.12-.52,3.23-.5.67-.35,1.45-.39,2.2-.63,1.66-.91,3.38-.68,5.15-.53.68-.4,1.49-.42,2.27,0,0-.03.06-.03.06s-.19.13-.19.13l.07.2c-.15.74-.3,1.48-.45,2.23-.55.62-.36,1.4-.49,2.12-.02.5-.04,1-.07,1.49-.26.52-.49,1.05-.33,1.65-.07.68-.14,1.36-.21,2.04-.53.66-.43,1.42-.31,2.18-.33.61-.5,1.24-.25,1.93-.1.41-.2.83-.29,1.24-.07.18-.14.37-.2.55-.17.88-.34,1.77-.51,2.65-.12.14-.13.28,0,.43-.28.52-.49,1.05-.35,1.65-.06.33-.12.66-.18,1-.43.67-.45,1.42-.42,2.18-.2.71-.4,1.42-.6,2.13-.49.43-.38.99-.34,1.53-.3.57-.53,1.15-.33,1.8-.08.29-.16.57-.24.86-.07.47-.14.95-.22,1.42-.37.34-.39.76-.3,1.21-.22.75-.43,1.5-.65,2.24-.5.58-.47,1.31-.55,2.01-.03.29-.06.57-.09.86-.07.23-.15.46-.22.69-2.97,11.1-5.8,22.24-8.95,33.29-2.67,9.36-5.5,18.7-11.95,26.38-1,1.19-1.98,2.38-3.07,3.69,1.59.25,2.5-.64,3.51-1.3,3.31-2.14,6.62-4.27,9.94-6.39.51-.33,1.08-.82,1.67-.4.63.45.26,1.17.02,1.69-1.54,3.32-2.61,6.83-4.6,9.99-3.5,5.55-6.67,11.31-9.96,16.99-.29.51-.84,1.12-.43,1.69.48.67,1.31.41,1.94.19,4.31-1.56,8.66-.9,13-.26,2.77.41,2.91.83,1.12,2.96-2.75,3.28-5.17,6.85-8.4,9.71-.07.06-.12.13-.18.19-.87,1.12-1.99,2.55-1.45,3.72.49,1.05,2.22.26,3.4.19.44-.03.88-.03,1.32-.05,4.95.34,10.03.25,14.06,3.92q.82,5.24-4.89,8.42c-1.84.38-3.59.93-4.71,2.61-.76.61-1.51,1.22-2.27,1.83-2.33.32-4.25,1.62-6.27,2.65-1.49.76-.26,1.11.34,1.51,2.52,2.22,5.49,3.36,8.83,3.42,2.34.05,4.04.79,4.6,3.25,1.05,2.97-1.47,3.65-3.14,4.87-.18.14-.37.28-.55.43h-.02c-.22.12-.43.24-.65.35h-.03c-.72.03-1.26.35-1.59,1l-.06.05-.5.41-.07.06c-.34.2-.68.39-1.03.59-.13,0-.23.05-.32.14-1.47.33-2.81.91-3.87,2.01-.13,0-.24.05-.33.15-2.12.99-4.24,1.96-6.35,2.98-.41.2-1.14.36-.78,1.06.27.53.86.46,1.4.3,1.88-.54,3.8-.27,5.7-.19,1.53.85,1.01,1.9.39,3.08-3.48,6.71-7.73,12.94-12.07,19.09-1.92,2.71-4.3,5.1-6.54,7.52-3.74,4.04-7.92,7.67-11.97,11.41-6.14,5.68-13.03,10.32-20.38,14.29-.53.29-1.15,1.07-1.76.04.52-.7,1.07-1.38,1.54-2.11,4.33-6.75,6.73-14.32,8.17-22.06,2.42-13,2.16-26.02-1.95-38.76-1.54-4.76-3.22-9.59-5.92-13.74-5.86-9.01-12.92-16.87-22.96-21.69-10.67-5.13-21.64-6.12-32.75-2.67-10.03,3.12-18.03,9.55-24.72,17.64-7.99,9.66-11.68,21.18-13.4,33.2-2.51,17.46.74,34.07,9.84,49.33,3.99,6.7,9.35,12.18,15.44,17.05,3.53,2.83,7.97,4.04,11.37,6.98-.94.53-1.96.69-3.02.84-7.83,1.11-15.72,1.61-23.6,2.06-10.51.61-21.03,1.05-31.55,1.56-4.1-.56-8.12.39-12.16.76-4.57.42-9.12,1.14-13.68,1.67-.56.07-1.17-.25-1.75-.39,1.56-6.33-1.64-11.51-4.53-16.47-5.6-9.6-13.56-17.35-21.2-25.33-6.58-6.87-13.62-13.32-19.2-21.14-5.87-8.22-9.78-17.12-11.45-27.11-2.66-15.99.47-30.93,8.25-44.89,4.09-7.35,9.25-14.03,15.02-20.22,8.82-9.47,18.79-17.58,29.02-25.43,8.9-6.83,17.72-13.77,26.4-20.87,7.92-6.48,12.34-15.33,15.88-24.68ZM200.9,291.82c.36-.07.73-.14,1.09-.21.42.14.77.09,1.01-.33.19-.06.38-.12.57-.17.44.1.85.06,1.18-.29.73.08,1.38-.16,2.01-.5,6.58-3.57,10.46-9.15,12.02-16.37,1.91-8.84.31-17.07-4.68-24.59-.92-1.39-.97-3.5-3.04-4.04-.86-.62-1.85-.37-2.79-.37-6.62-.02-13.24-.03-19.86,0-1.19,0-2.44-.32-3.58.34-.8.03-1.6.07-2.4.1l-1.13.3c-.51.11-1.02.22-1.54.34-.38.11-.76.23-1.14.34-3.05.81-5.65,2.37-7.86,4.61h-.15s0,.14,0,.14c-.84.52-1.53,1.17-1.93,2.09-.4.02-.65.23-.77.61-1.72,1.69-2.81,3.75-3.51,6.04-.08.26-.15.51-.23.77-.41.59-.47,1.23-.29,1.91-.14.6-.27,1.21-.41,1.81-.02.34-.04.68-.07,1.02-.3,1.76-.35,3.51.04,5.27.04.21.09.41.13.62-.08.78-.23,1.57.31,2.27-.12.67-.1,1.32.22,1.94.09.27.18.55.28.82,2.6,6.92,7.18,11.91,14.19,14.53.4.15.81.3,1.21.46.78.46,1.61.72,2.53.58.49.41,1.08.42,1.68.39.67.37,1.37.27,2.08.12.2,0,.41,0,.61-.01l.21.07.21-.05c1.01.68,2.11.43,3.2.3,1.61,0,3.23,0,4.84-.01.6.18,1.14,0,1.66-.28.7.19,1.38.21,2.02-.17.72-.03,1.48.22,2.08-.39ZM309.58,179.17c.09,4.12.19,8.17,1.02,12.28,2.04,10.1,6.16,18.9,14.17,25.62,6.86,5.75,14.78,9.33,23.47,11.25,3.33.73,6.71,1.28,10.09,1.71,1.46.19,3.04.51,3.78-1.75,2.86-8.72,5.88-17.37,8.35-26.22,2.41-8.6,4.85-17.19,6.85-25.89,1.52-6.64,3.05-13.28,4.58-19.91,1.22-5.29,2.58-10.55,3.65-15.87,2.32-11.49,4.5-23,6.73-34.51,1.89-9.74,3.37-19.54,2.8-29.5-.29-5.09-.79-10.16-5.11-13.89-3.95-3.4-11.78-4.53-15.47-1.2-4.46,4.03-8.28,8.55-12.1,13.11-5.08,6.05-9.28,12.74-13.77,19.22-6.17,8.91-12.43,17.8-17.62,27.31-4.22,7.73-8.77,15.28-12.5,23.3-5.18,11.15-9.13,22.48-8.93,34.94Z"/>
  <path class="cls-13" d="M208.75,396.52c10.52-.51,21.04-.95,31.55-1.56,7.88-.46,15.77-.95,23.6-2.06,1.06-.15,2.08-.31,3.02-.84,1.28.56,2.58.29,3.85,0,6.99-1.58,13.82-3.74,20.71-5.68,6.96-1.95,13.44-5.05,20.29-7.15.97.57,1.36,1.58,1.86,2.5,2.59,4.74,5.97,8.9,9.87,12.56,6.09,5.72,10.92,12.47,16.3,18.78,1.93,2.26,2.99,5.43,6.15,6.55-.33.45-.66.9-1,1.35,0,0-.23,0-.23,0l-.11.22c-1.11.81-2.22,1.62-3.33,2.42-.92.74-1.84,1.48-2.76,2.23-1.01.6-2.02,1.21-3.03,1.81-.34.13-.68.25-1.02.38-3,1.67-5.99,3.34-8.99,5.02-13.61,6.27-28.15,8.76-42.85,10.63-12.5,1.59-25.04,1.23-37.56.41-5.92-.39-10.43-3.15-14.08-8.22-4.55-6.31-9.54-12.3-12.98-19.33-3.23-6.6-6.63-13.13-9.27-20Z"/>
  <path class="cls-4" d="M345.95,419.61c-3.16-1.13-4.22-4.29-6.15-6.55-5.38-6.3-10.21-13.06-16.3-18.78-3.9-3.66-7.28-7.82-9.87-12.56-.5-.92-.89-1.92-1.86-2.5,1.09-.84,2.71-.93,3.49-2.16,1.95-3.07,5.41-4.83,6.99-8.21.6,1.03,1.23.24,1.76-.04,7.35-3.97,14.24-8.61,20.38-14.29,4.05-3.74,8.23-7.37,11.97-11.41,2.24-2.43,4.62-4.81,6.54-7.52,4.35-6.16,8.59-12.39,12.07-19.09.62-1.19,1.14-2.23-.39-3.08-.42-1.97-2.56-.21-3.37-1.52,1.16-.93,2.93-.96,3.4-2.63.09-.1.19-.15.33-.15,1.68.07,2.99-.56,3.87-2.01.08-.09.19-.14.32-.14.51.1,1,.15,1.02-.59,0,0,.07-.06.07-.05.37.1.52-.05.5-.42,0,0,.06-.05.06-.05.91.27,1.41-.1,1.59-.99,0,0,.03,0,.03,0,.22-.11.43-.23.65-.34,0,0,.02,0,.02,0,.17.04.33.07.51.1.32.91,2.54-1.02,1.91,1.27-.16.6-.56,1.27.19,1.61.72.34,1.51.22,2.25-.26,1.29-.86,1.55-2.09,1.17-3.58,1.24.37,2.55,1.96,2.88-.47.16-1.2.17-2.46,1.77-2.34,1.56.12,3.11-.65,4.55,1.41,1.72,2.47,2.29,5.65,4.69,7.61,1.72,1.41,2.57,2.97,1.71,5.17-6.71-4.67-13.2-4.99-19.92.28-6.12,4.81-8.49,14.14-4.28,20.32,5.87,8.61,18.19,10.24,25.63,3.09,2.99-2.87,4.18-6.5,5.25-10.27.39.81.9,1.75,1.79,1.76,3.26,0,2.51,1.79,1.69,3.58-1.04,2.29-.87,4.19,1.48,5.54,0,2.87-2.49,4.6-3.27,7.13-.24.79-.91,1.45-1,2.34-1.26.96-1.94,2.33-2.6,3.71-1.97,3.56-4.56,6.7-6.88,10.03-.7.29-1.06.81-1.05,1.58-2.83,3.95-5.91,7.69-9,11.44-2.65,3.21-5.83,5.98-7.92,9.65-1.22.2-1.94.9-2.1,2.13-2.99,2.82-5.97,5.65-8.96,8.47-1.63,1.18-3.02,2.6-4.23,4.2-.7.36-1.23.89-1.58,1.6-.91.5-1.61,1.2-2.13,2.09-.89.51-1.59,1.21-2.11,2.11-.67.03-1.03.38-1.08,1.05-4.18,3.17-8.22,6.52-12.12,10.03-1.06.88-2.11,1.76-3.17,2.65-.39.02-.77.04-1.16.06ZM369.61,378.02c9.59.55,15.68-7.81,15.52-15.27-.17-7.41-6.37-15.34-15.06-15.16-8.56.18-15.17,5.75-15.17,15.27,0,8.79,6.24,15.15,14.71,15.16Z"/>
  <path class="cls-15" d="M416.3,339.35c-2.35-1.35-2.52-3.26-1.48-5.54.82-1.79,1.57-3.58-1.69-3.58-.88,0-1.4-.95-1.79-1.76.13-1.78-.36-3.4-.91-5.09-1.1-3.4-3.65-5.7-5.77-8.33.86-2.2.01-3.76-1.71-5.17-2.4-1.97-2.97-5.14-4.69-7.61-1.44-2.06-2.99-1.29-4.55-1.41-1.6-.13-1.61,1.13-1.77,2.34-.33,2.42-1.64.84-2.88.47.38,1.49.12,2.73-1.17,3.58-.73.48-1.52.6-2.25.26-.74-.34-.35-1.01-.19-1.61.63-2.29-1.59-.36-1.91-1.27.04-.17.05-.35.05-.52,1.66-1.23,4.18-1.9,3.14-4.87,1.05-1.08,0-2.07-.14-3.1,2.72-.19,5.1,1.12,7.57,1.89,9.69,2.99,19.1,6.71,28.43,10.69,2.2.94,1.8,2.74,1.45,4.22-1.4,5.93-2.88,11.86-4.64,17.69-.89,2.95-1.39,6.08-3.11,8.75Z"/>
  <path class="cls-1" d="M391.11,275.52c-4.03-3.67-9.1-3.58-14.06-3.92,9.52-6.45,19.63-11.34,32.04-12.01-5.88,6.07-12.22,10.67-17.98,15.92Z"/>
  <path class="cls-1" d="M379.24,288.38c.76-.61,1.51-1.22,2.27-1.83,1.65-.5,3.37-.82,4.72-2.03,8.33-3.76,15.44.6,22.69,3.55,2.24.91,4.49,1.86,6.7,3.06-4.62.64-9.25.84-13.87.48-6.27-.48-12.52-1.18-18.62-2.9-1.23-.35-2.59-.23-3.9-.33Z"/>
  <path class="cls-8" d="M386.6,296.11c.14,1.03,1.18,2.02.14,3.1-.57-2.46-2.27-3.2-4.6-3.25-3.33-.06-6.3-1.2-8.83-3.42,3.95-.12,7.47,1.56,11.11,2.67.75.23,1.45.59,2.18.9Z"/>
  <path class="cls-5" d="M338.51,425.82c.92-.74,1.84-1.48,2.76-2.23,1.61.6,1.63,1.97,1.63,3.36-1.62.23-3.05-.26-4.38-1.13Z"/>
  <path class="cls-9" d="M388.81,38.4c-1.57.31-3.14.61-4.72.92.13-.22.27-.44.39-.67,1.68-3.14,2.21-3.17,4.32-.25Z"/>
  <path class="cls-9" d="M403.24,82.73c0-5.25,0-10.51,0-15.76.61,5.25.62,10.51,0,15.76Z"/>
  <path class="cls-5" d="M369.29,400.03c1.21-1.61,2.6-3.03,4.23-4.2-.4,2.42-1.79,3.84-4.23,4.2Z"/>
  <path class="cls-5" d="M347.1,419.55c1.06-.88,2.11-1.76,3.17-2.65.2,2.39-.66,3.51-3.17,2.65Z"/>
  <path class="cls-8" d="M386.22,284.52c-1.35,1.21-3.07,1.53-4.72,2.03,1.12-1.68,2.87-2.23,4.71-2.61,0,.19,0,.39,0,.58Z"/>
  <path class="cls-9" d="M394.6,149.28c.17-.88.34-1.77.51-2.65.79.47,1.76.96,1.46,2.05-.27.96-1.28.48-1.97.6Z"/>
  <path class="cls-5" d="M409.43,352.53c.66-1.38,1.34-2.74,2.6-3.71.05,1.88-.45,3.37-2.6,3.71Z"/>
  <path class="cls-5" d="M344.69,427.99c-.39.69-1.02,1-1.79,1.06,0-.7,0-1.4,0-2.1.8-.01,1.53.12,1.79,1.04Z"/>
  <path class="cls-5" d="M382.48,387.35c.17-1.24.89-1.93,2.1-2.13-.11,1.29-.83,1.98-2.1,2.13Z"/>
  <path class="cls-5" d="M365.59,403.72c.52-.89,1.22-1.6,2.13-2.09.1,1.52-.61,2.22-2.13,2.09Z"/>
  <path class="cls-5" d="M346.07,424.04c-.46-.07-.48-.42-.48-.77,0-.34.01-.75.48-.75.46,0,.48.41.48.75,0,.34-.01.7-.48.76Z"/>
  <path class="cls-9" d="M402.17,102.27c-.08-1.29-.17-2.57.33-3.81-.05,1.27.42,2.59-.33,3.81Z"/>
  <path class="cls-9" d="M402.96,91.05c-.23-1.03-.18-2.04.1-3.05-.03,1.02-.06,2.03-.1,3.05Z"/>
  <path class="cls-9" d="M403.14,46.77c-.21-.25-.44-.4-.46-.58-.02-.2.09-.56.24-.62.39-.15.61.14.6.5,0,.2-.2.39-.38.69Z"/>
  <path class="cls-9" d="M402.48,57.15c-.59-.89-.3-1.92-.44-2.89.9.85.41,1.91.44,2.89Z"/>
  <path class="cls-9" d="M400.97,108.63c.26-.87-.09-1.85.52-2.65-.09.9.37,1.91-.52,2.65Z"/>
  <path class="cls-5" d="M401.5,364.14c-.01-.77.35-1.29,1.05-1.58,0,.76.01,1.53-1.05,1.58Z"/>
  <path class="cls-9" d="M396.77,135.55c.13-.71-.06-1.5.49-2.12-.04.73.26,1.55-.49,2.12Z"/>
  <path class="cls-9" d="M401.81,104.84c-.21-.71-.36-1.41.2-2.03-.07.68-.13,1.36-.2,2.03Z"/>
  <path class="cls-9" d="M400.05,116.53c-.05-.76-.19-1.53.35-2.19,0,.75.27,1.54-.35,2.19Z"/>
  <path class="cls-9" d="M393.65,154.55c-.03-.76,0-1.51.42-2.18,0,.75.28,1.57-.42,2.18Z"/>
  <path class="cls-9" d="M390.42,167.76c.08-.7.06-1.42.55-2.01-.08.7.2,1.49-.55,2.01Z"/>
  <path class="cls-9" d="M397.85,130.82c.02-.78-.11-1.59.42-2.27.01.79.3,1.62-.42,2.27Z"/>
  <path class="cls-9" d="M403.05,65.95c-.3-.76-.29-1.52,0-2.28,0,.76,0,1.52,0,2.28Z"/>
  <path class="cls-5" d="M362.39,406.87c.06-.66.42-1.02,1.08-1.05-.01.71-.37,1.06-1.08,1.05Z"/>
  <path class="cls-9" d="M398.95,123.39c.04-.75-.11-1.53.39-2.2,0,.76.3,1.56-.39,2.2Z"/>
  <path class="cls-9" d="M395.86,142.91c-.11-.76-.22-1.51.31-2.18,0,.74.26,1.52-.31,2.18Z"/>
  <path class="cls-9" d="M392.71,158.21c-.05-.55-.16-1.11.34-1.53,0,.54.12,1.1-.34,1.53Z"/>
  <path class="cls-9" d="M401.46,51.7c-.41-.48-.47-1.06-.45-1.65.61.43.49,1.05.45,1.65Z"/>
  <path class="cls-9" d="M396.38,138.69c-.16-.6.07-1.13.33-1.65.05.58.16,1.18-.33,1.65Z"/>
  <path class="cls-9" d="M394.25,151.36c-.14-.61.07-1.14.35-1.65.04.58.16,1.19-.35,1.65Z"/>
  <path class="cls-9" d="M402.74,95.93c0-.33,0-.66,0-.99.38.33.38.66,0,.99Z"/>
  <path class="cls-9" d="M395.32,146.08c.1-.41.2-.83.29-1.24.07.45.1.9-.29,1.24Z"/>
  <path class="cls-9" d="M391.62,163.51c-.09-.45-.07-.88.3-1.21.07.45.09.88-.3,1.21Z"/>
  <path class="cls-9" d="M399.39,44.74c-.4-.23-.47-.59-.41-1.01.14.34.27.67.41,1.01Z"/>
  <path class="cls-9" d="M395.13,39.33c-.32-.13-.64-.27-.95-.4.32.13.64.27.95.4Z"/>
  <path class="cls-9" d="M402.74,59.51c-.11-.15-.13-.31-.07-.49.07.11.15.21.19.33.01.03-.08.1-.13.16Z"/>
  <path class="cls-9" d="M401.95,53.94c-.08-.23-.16-.46-.24-.7.08.23.16.46.24.7Z"/>
  <path class="cls-9" d="M390.11,169.3c.07-.23.15-.46.22-.69-.07.23-.15.46-.22.69Z"/>
  <path class="cls-9" d="M400.87,49.28c-.1-.27-.2-.54-.3-.81.1.27.2.54.3.81Z"/>
  <path class="cls-9" d="M400.36,47.61c-.09-.24-.17-.47-.26-.71.09.24.17.47.26.71Z"/>
  <path class="cls-9" d="M397.71,131.21l-.07-.2s.19-.13.19-.13c-.02.12-.06.23-.12.33Z"/>
  <path class="cls-9" d="M399.83,46.06c-.08-.24-.16-.49-.24-.73.08.24.16.49.24.73Z"/>
  <path class="cls-9" d="M399.86,117.97c-.14-.14-.13-.28.03-.41.02.14.01.27-.03.41Z"/>
  <path class="cls-9" d="M398.32,42.67c-.12-.17-.23-.34-.35-.52.12.17.23.34.35.52Z"/>
  <path class="cls-9" d="M396.2,40.03c-.23-.16-.47-.33-.7-.49.23.16.47.33.7.49Z"/>
  <path class="cls-9" d="M400.9,110.06c-.03-.11-.07-.21-.08-.32,0-.04.07-.09.11-.13.03.15.02.3-.03.45Z"/>
  <path class="cls-9" d="M390.92,38.26s-.25.02-.25.02c0,0-.22-.12-.22-.12.15.03.31.07.46.1Z"/>
  <path class="cls-9" d="M400.57,112.32c-.05-.17-.03-.34.08-.48.03.12.08.24.08.36,0,.04-.11.08-.16.12Z"/>
  <path class="cls-5" d="M344.6,421.17l.11-.22s.23,0,.23,0c-.09.12-.2.19-.35.21Z"/>
  <path class="cls-5" d="M346.11,426.97c-.18.12-.36.23-.55.35.18-.12.36-.23.55-.35Z"/>
  <path class="cls-9" d="M392.13,160.87c.08-.29.16-.57.24-.86-.08.29-.16.57-.24.86Z"/>
  <path class="cls-6" d="M342.9,426.95c0,.7,0,1.4,0,2.1-.4.34-.79.69-1.19,1.03-.3.14-.6.29-.9.43-.59.4-1.18.81-1.77,1.21-.16.07-.28.19-.34.36-.05.17-.16.24-.34.21-.24.1-.47.2-.71.3-2.12,1.61-4.59,2.58-6.89,3.87-.84-1.02-1.77-1.71-3.25-1.65-1.02.04-2.07-.37-2.03-1.78,3-1.67,5.99-3.34,8.99-5.02.34-.13.68-.25,1.02-.38,1.01-.6,2.02-1.21,3.03-1.81,1.33.87,2.77,1.37,4.38,1.13Z"/>
  <path class="cls-5" d="M340.81,430.51c.3-.14.6-.29.9-.43-.18.39-.51.47-.9.43Z"/>
  <path class="cls-5" d="M338.7,432.09c.06-.17.18-.29.34-.36-.11.12-.23.24-.34.36Z"/>
  <path class="cls-5" d="M337.65,432.59c.24-.1.47-.2.71-.3-.24.1-.47.2-.71.3Z"/>
  <path class="cls-2" d="M322.25,368.86c-1.57,3.37-5.04,5.14-6.99,8.21-.78,1.23-2.4,1.32-3.49,2.16-6.86,2.1-13.33,5.2-20.29,7.15-6.89,1.93-13.72,4.1-20.71,5.68-1.27.29-2.57.56-3.85,0-3.41-2.94-7.85-4.15-11.38-6.98-6.08-4.87-11.44-10.36-15.44-17.05-9.1-15.26-12.35-31.88-9.84-49.33,1.73-12.02,5.41-23.54,13.4-33.2,6.69-8.09,14.69-14.52,24.72-17.64,11.11-3.46,22.08-2.46,32.75,2.67,10.04,4.82,17.09,12.68,22.96,21.69,2.7,4.15,4.38,8.98,5.92,13.74,4.11,12.73,4.38,25.75,1.95,38.76-1.44,7.74-3.84,15.31-8.17,22.06-.47.73-1.03,1.41-1.54,2.11Z"/>
  <path class="cls-3" d="M309.58,179.17c-.2-12.46,3.74-23.8,8.93-34.94,3.73-8.02,8.28-15.57,12.5-23.3,5.19-9.51,11.44-18.4,17.62-27.31,4.49-6.48,8.69-13.16,13.77-19.22,3.82-4.56,7.64-9.08,12.1-13.11,3.68-3.33,11.52-2.2,15.47,1.2,4.33,3.73,4.82,8.79,5.11,13.89.57,9.96-.91,19.76-2.8,29.5-2.23,11.51-4.41,23.02-6.73,34.51-1.07,5.32-2.43,10.58-3.65,15.87-1.53,6.64-3.06,13.27-4.58,19.91-2,8.71-4.44,17.29-6.85,25.89-2.47,8.84-5.5,17.5-8.35,26.22-.74,2.25-2.31,1.94-3.78,1.75-3.38-.44-6.76-.98-10.09-1.71-8.69-1.91-16.61-5.5-23.47-11.25-8.01-6.72-12.13-15.52-14.17-25.62-.83-4.11-.93-8.16-1.02-12.28Z"/>
  <path class="cls-6" d="M164.1,275.47c-.32-.62-.35-1.27-.22-1.94.03-.77.3-1.58-.31-2.27-.04-.21-.09-.41-.13-.62-.01-1.76-.03-3.51-.04-5.27.02-.34.04-.68.07-1.02.65-.49.46-1.17.41-1.81-.18-.68-.12-1.32.29-1.91.08-.26.15-.51.23-.77.7-2.29,1.79-4.35,3.51-6.04.38-.04.67-.21.77-.61.4-.92,1.09-1.58,1.93-2.09,0,0,.15-.14.15-.14,2.21-2.23,4.81-3.8,7.86-4.61.43.06.84.03,1.14-.34.51-.11,1.02-.22,1.54-.34.67,1.02.95.56,1.13-.3.8-.03,1.6-.07,2.4-.1,8.75,0,17.49.01,26.23.02,2.07.54,2.12,2.65,3.04,4.04,4.99,7.52,6.59,15.75,4.68,24.59-1.56,7.23-5.44,12.8-12.02,16.37-.63.34-1.28.59-2.01.5-.43-.07-.85-.06-1.18.29-.19.06-.38.12-.57.17-.34.11-.67.22-1.01.33-.36.07-.73.14-1.09.21-.71.04-1.48-.23-2.08.39-.65.38-1.33.36-2.02.17-.58-.05-1.17-.17-1.66.28-1.61,0-3.23,0-4.84.01-1.02-.64-2.13-.25-3.2-.3l-.21.05s-.21-.07-.21-.07c-.2,0-.41,0-.61.01-.7.15-1.4.25-2.08-.12-.46-.57-1.08-.44-1.68-.39-.92.14-1.75-.12-2.53-.58-.28-.49-.72-.52-1.21-.46-7.01-2.62-11.59-7.6-14.19-14.53-.09-.27-.18-.55-.28-.82ZM199.32,285.53l.04-.04c.37-.21.33-.39-.05-.53-8.55-2.9-13.64-8.99-16.44-17.39-1.73-5.2-1.24-10.35-.18-15.52.28-1.37-.14-1.5-1.22-1.37-.19.05-.38.1-.57.16-6.52,2.84-11.16,7.28-12.37,14.61-.65,1.53-.48,3.08-.13,4.64,1.34,7.31,5.33,12.65,11.93,16.06.29.37.68.41,1.1.36l1.55.23c.39.38.86.32,1.33.24.8.03,1.62-.14,2.37.3.38.37.84.31,1.31.23,3.61-.12,7.16-.71,10.66-1.56.22-.14.45-.28.67-.42ZM192.93,290.74c-1.34.07-2.73-.19-4.26.75,1.53.44,2.76.53,4-.07,1.62.88,3.11.55,5.15-.68h-4.9ZM173.87,284.16c-.07-.51-.39-.74-.88-.74-.45,0-.91.07-.98.61-.09.71.4.86.97.87.49,0,.81-.23.88-.74Z"/>
  <path class="cls-8" d="M374.6,309.27c-.47,1.68-2.24,1.71-3.4,2.63.81,1.3,2.95-.45,3.37,1.52-1.91-.07-3.82-.35-5.7.19-.54.16-1.12.22-1.4-.3-.36-.7.37-.86.78-1.06,2.1-1.02,4.23-1.99,6.35-2.98Z"/>
  <path class="cls-9" d="M211.06,245.31c-8.74,0-17.49-.01-26.23-.02,1.14-.66,2.39-.34,3.58-.34,6.62-.04,13.24-.03,19.86,0,.94,0,1.93-.25,2.79.37Z"/>
  <path class="cls-8" d="M378.8,307.1c-.88,1.45-2.19,2.08-3.87,2.01,1.07-1.1,2.4-1.68,3.87-2.01Z"/>
  <path class="cls-9" d="M163.4,265.37c.01,1.76.03,3.51.04,5.27-.39-1.75-.34-3.51-.04-5.27Z"/>
  <path class="cls-9" d="M187.09,292.37c1.07.06,2.18-.34,3.2.3-1.09.13-2.19.37-3.2-.3Z"/>
  <path class="cls-8" d="M382.36,304.86c-.18.89-.68,1.27-1.59.99.33-.65.87-.96,1.59-.99Z"/>
  <path class="cls-9" d="M182.42,245.39c-.17.86-.46,1.32-1.13.3.38-.1.75-.2,1.13-.3Z"/>
  <path class="cls-9" d="M163.57,271.26c.61.69.33,1.5.31,2.27-.54-.7-.39-1.49-.31-2.27Z"/>
  <path class="cls-9" d="M198.81,292.21c.6-.63,1.37-.35,2.08-.39-.6.62-1.37.37-2.08.39Z"/>
  <path class="cls-9" d="M163.87,262.54c.06.65.24,1.32-.41,1.81.14-.6.27-1.21.41-1.81Z"/>
  <path class="cls-9" d="M182.31,291.86c.6-.04,1.22-.18,1.68.39-.59.02-1.18.02-1.68-.39Z"/>
  <path class="cls-9" d="M195.13,292.67c.49-.45,1.08-.33,1.66-.28-.52.29-1.06.47-1.66.28Z"/>
  <path class="cls-9" d="M201.99,291.61c.34-.11.67-.22,1.01-.33-.24.42-.59.47-1.01.33Z"/>
  <path class="cls-9" d="M178.57,290.82c.49-.07.93-.03,1.21.46-.4-.15-.81-.3-1.21-.46Z"/>
  <path class="cls-9" d="M203.57,291.11c.33-.35.75-.36,1.18-.29-.33.35-.74.39-1.18.29Z"/>
  <path class="cls-8" d="M380.14,306.38c-.03.74-.51.69-1.02.59.34-.2.68-.39,1.02-.59Z"/>
  <path class="cls-9" d="M179.76,246.03c-.3.37-.71.4-1.14.34.38-.11.76-.23,1.14-.34Z"/>
  <path class="cls-9" d="M168.67,253.21c-.1.4-.39.56-.77.61.12-.37.38-.58.77-.61Z"/>
  <path class="cls-8" d="M383.6,304.08c0,.17-.01.35-.05.52-.17-.02-.34-.05-.51-.09.18-.14.37-.28.55-.43Z"/>
  <path class="cls-8" d="M383.03,304.52c-.22.12-.43.23-.65.34.22-.12.43-.23.65-.34Z"/>
  <path class="cls-8" d="M380.71,305.91c.02.36-.13.52-.5.42.17-.14.33-.28.5-.42Z"/>
  <path class="cls-9" d="M164.1,275.47c.09.27.18.55.28.82-.09-.27-.18-.55-.28-.82Z"/>
  <path class="cls-9" d="M164.39,259.86c-.08.26-.15.51-.23.77.08-.26.15-.51.23-.77Z"/>
  <polygon class="cls-9" points="170.75 250.97 170.6 251.12 170.6 250.97 170.75 250.97"/>
  <path class="cls-9" d="M186.06,292.37c.2,0,.41,0,.61-.01-.2,0-.41,0-.61.01Z"/>
  <path class="cls-5" d="M335.49,427.63c-.34.13-.68.25-1.02.38.34-.13.68-.25,1.02-.38Z"/>
  <path class="cls-1" d="M404.66,315.03c2.12,2.64,4.67,4.93,5.77,8.33.55,1.69,1.04,3.32.91,5.09-1.07,3.77-2.26,7.4-5.25,10.27-7.44,7.15-19.76,5.51-25.63-3.09-4.21-6.18-1.84-15.51,4.28-20.32,6.72-5.28,13.21-4.95,19.92-.28ZM394.52,334.19c4.2.02,7.42-3.06,7.41-7.1,0-3.51-3.77-6.47-8.18-6.43-3.73.03-6.01,2.34-6.03,6.09-.02,4.16,2.96,7.43,6.8,7.45Z"/>
  <path class="cls-1" d="M369.61,378.02c-8.47,0-14.72-6.37-14.71-15.16,0-9.52,6.62-15.09,15.17-15.27,8.69-.18,14.89,7.75,15.06,15.16.17,7.46-5.93,15.82-15.52,15.27ZM370.29,355.98c-4.42.26-7.21,2.95-7.05,6.78.19,4.38,3.13,7.13,7.3,6.84,3.25-.23,6.31-3.53,6.23-6.72-.09-3.65-3.32-7.08-6.49-6.9Z"/>
  <path class="cls-1" d="M168.53,265.45c1.22-7.33,5.86-11.77,12.37-14.61.19-.05.38-.1.57-.16,1.07-.14,1.5,0,1.22,1.37-1.06,5.17-1.55,10.32.18,15.52,2.8,8.39,7.89,14.49,16.44,17.39.02.18.03.35.05.53,0,0-.04.04-.04.04-.22.14-.45.28-.67.42-3.51.85-7.05,1.44-10.66,1.56-.38-.39-.84-.31-1.3-.23-.75-.44-1.57-.28-2.37-.3-.39-.41-.86-.32-1.33-.24-.52-.08-1.03-.15-1.55-.23-.29-.36-.68-.41-1.1-.36-6.6-3.4-10.59-8.75-11.93-16.06.04-1.55.08-3.09.13-4.64Z"/>
  <path class="cls-14" d="M192.93,290.74h4.9c-2.04,1.23-3.54,1.56-5.15.68.09-.23.17-.45.25-.68Z"/>
  <path class="cls-9" d="M192.93,290.74c-.08.23-.17.45-.25.68-1.24.6-2.47.5-4,.07,1.52-.93,2.91-.68,4.26-.75Z"/>
  <path class="cls-9" d="M173.87,284.16c-.07.51-.39.74-.88.74-.57,0-1.06-.16-.97-.87.07-.54.52-.62.98-.61.49,0,.81.23.88.74Z"/>
  <path class="cls-9" d="M168.53,265.45c-.04,1.55-.08,3.09-.13,4.64-.35-1.56-.52-3.11.13-4.64Z"/>
  <path class="cls-9" d="M180.33,286.15c.42-.05.82,0,1.1.36-.42.05-.82.01-1.1-.36Z"/>
  <path class="cls-9" d="M182.98,286.73c.47-.08.95-.17,1.33.24-.47.09-.94.14-1.33-.24Z"/>
  <path class="cls-9" d="M186.68,287.28c.46-.07.92-.16,1.3.23-.46.08-.92.14-1.3-.23Z"/>
  <path class="cls-9" d="M199.36,285.48c-.02-.18-.03-.35-.05-.53.38.14.42.31.05.53Z"/>
  <path class="cls-9" d="M198.65,285.95c.22-.14.45-.28.67-.42-.22.14-.45.28-.67.42Z"/>
  <path class="cls-9" d="M181.47,250.68c-.19.05-.38.1-.57.16.19-.05.38-.1.57-.16Z"/>
  <path class="cls-4" d="M394.52,334.19c-3.84-.02-6.82-3.29-6.8-7.45.02-3.75,2.3-6.06,6.03-6.09,4.41-.04,8.18,2.92,8.18,6.43,0,4.04-3.21,7.12-7.41,7.1Z"/>
  <path class="cls-14" d="M370.29,355.98c3.17-.18,6.39,3.24,6.49,6.9.08,3.19-2.98,6.48-6.23,6.72-4.17.3-7.11-2.45-7.3-6.84-.17-3.83,2.63-6.52,7.05-6.78Z"/>
</svg>